<!-- Generated by IcoMoon.io -->
<svg version="1.1" xmlns="http://www.w3.org/2000/svg" width="1024" height="1024" viewBox="0 0 1024 1024">
<title></title>
<g id="icomoon-ignore">
</g>
<path d="M802.525 245.445c-53.434-24.518-110.735-42.582-170.647-52.928-1.089-0.2-2.18 0.299-2.741 1.297-7.37 13.107-15.532 30.206-21.251 43.646-64.437-9.647-128.544-9.647-191.66 0-5.718-13.739-14.177-30.539-21.579-43.646-0.563-0.965-1.652-1.464-2.743-1.297-59.877 10.313-117.178 28.377-170.646 52.928-0.463 0.199-0.86 0.532-1.123 0.965-108.687 162.377-138.46 320.76-123.854 477.181 0.066 0.765 0.496 1.496 1.091 1.962 71.708 52.661 141.17 84.631 209.341 105.822 1.091 0.331 2.247-0.067 2.943-0.965 16.125-22.021 30.499-45.242 42.825-69.662 0.728-1.431 0.035-3.126-1.452-3.692-22.803-8.65-44.512-19.195-65.399-31.17-1.652-0.965-1.784-3.328-0.264-4.46 4.395-3.293 8.793-6.721 12.989-10.181 0.76-0.631 1.816-0.765 2.708-0.364 137.205 62.642 285.745 62.642 421.327 0 0.892-0.434 1.951-0.299 2.743 0.331 4.198 3.46 8.594 6.92 13.021 10.213 1.52 1.132 1.42 3.495-0.232 4.46-20.884 12.207-42.596 22.52-65.431 31.138-1.485 0.563-2.148 2.293-1.42 3.724 12.59 24.385 26.966 47.605 42.795 69.627 0.66 0.932 1.849 1.331 2.94 1 68.503-21.191 137.965-53.162 209.672-105.822 0.628-0.466 1.024-1.164 1.091-1.929 17.481-180.838-29.278-337.925-123.953-477.18-0.232-0.465-0.628-0.798-1.091-0.998zM372.97 628.345c-41.308 0-75.345-37.923-75.345-84.496s33.377-84.499 75.345-84.499c42.297 0 76.002 38.257 75.342 84.499 0 46.573-33.377 84.496-75.342 84.496zM651.542 628.345c-41.308 0-75.345-37.923-75.345-84.496s33.377-84.499 75.345-84.499c42.297 0 76.002 38.257 75.342 84.499 0 46.573-33.046 84.496-75.342 84.496z"></path>
</svg>
