<!-- Generated by IcoMoon.io -->
<svg version="1.1" xmlns="http://www.w3.org/2000/svg" width="1024" height="1024" viewBox="0 0 1024 1024">
<title></title>
<g id="icomoon-ignore">
</g>
<path d="M523.706 286.537c-70.793 29.071-212.286 89.242-424.471 180.51-34.456 13.528-52.505 26.761-54.148 39.702-2.777 21.87 24.962 30.48 62.736 42.208 5.138 1.595 10.462 3.247 15.92 4.999 37.163 11.927 87.155 25.88 113.143 26.435 23.574 0.501 49.884-9.092 78.933-28.785 198.252-132.123 300.59-198.904 307.017-200.343 4.533-1.016 10.814-2.293 15.069 1.442 4.258 3.732 3.837 10.806 3.387 12.703-2.749 11.566-111.635 111.508-167.982 163.228-17.567 16.123-30.027 27.562-32.577 30.173-5.705 5.85-11.52 11.385-17.109 16.705-34.525 32.86-60.416 57.5 1.434 97.741 29.72 19.337 53.504 35.328 77.231 51.281 25.915 17.421 51.761 34.8 85.202 56.441 8.521 5.513 16.656 11.24 24.581 16.818 30.157 21.226 57.25 40.297 90.721 37.255 19.451-1.768 39.54-19.822 49.745-73.674 24.113-127.262 71.508-403.006 82.462-516.633 0.959-9.955-0.248-22.696-1.218-28.289-0.967-5.593-2.994-13.562-10.359-19.461-8.72-6.986-22.183-8.459-28.203-8.354-27.376 0.476-69.379 14.895-271.514 97.9z"></path>
</svg>
