<!-- Generated by IcoMoon.io -->
<svg version="1.1" xmlns="http://www.w3.org/2000/svg" width="1024" height="1024" viewBox="0 0 1024 1024">
<title></title>
<g id="icomoon-ignore">
</g>
<path d="M845.35 340.957c0.512 7.392 0.512 14.781 0.512 22.24 0 227.277-173.021 489.394-489.394 489.394v-0.135c-93.459 0.135-184.976-26.635-263.652-77.11 13.59 1.636 27.247 2.452 40.939 2.487 77.45 0.067 152.688-25.921 213.619-73.774-73.601-1.396-138.144-49.384-160.691-119.444 25.783 4.972 52.349 3.95 77.655-2.964-80.243-16.212-137.973-86.714-137.973-168.591 0-0.749 0-1.463 0-2.18 23.909 13.317 50.68 20.709 78.063 21.526-75.577-50.51-98.873-151.051-53.234-229.66 87.327 107.456 216.172 172.782 354.485 179.694-13.862-59.737 5.077-122.339 49.761-164.333 69.276-65.121 178.23-61.783 243.351 7.459 38.521-7.595 75.442-21.73 109.228-41.757-12.84 39.815-39.712 73.636-75.612 95.126 34.094-4.018 67.403-13.146 98.77-27.076-23.091 34.605-52.178 64.746-85.827 89.098z"></path>
</svg>
